<svg width="27" height="25" viewBox="0 0 27 25" fill="none" xmlns="http://www.w3.org/2000/svg">
<path d="M4.5 14.7778H4.35811L4.23737 14.8523L0.5 17.1593V5.55555C0.5 4.33311 1.58236 3.27777 3 3.27777H15C16.4176 3.27777 17.5 4.33311 17.5 5.55555V6.44444H12C9.27551 6.44444 7 8.49824 7 11.1111V14.7778H4.5ZM21.2852 20.4226L21.1566 20.3333H21H12C10.5824 20.3333 9.5 19.278 9.5 18.0555V11.1111C9.5 9.88866 10.5824 8.83333 12 8.83333H24C25.4176 8.83333 26.5 9.88866 26.5 11.1111V24.044L21.2852 20.4226Z" fill="#FFFDFD" stroke="#757575" stroke-linecap="square"/>
</svg>
