<svg width="25" height="17" viewBox="0 0 25 17" fill="none" xmlns="http://www.w3.org/2000/svg">
<path d="M24.9453 8.00543C24.9087 7.92319 24.0273 5.968 22.0597 4.00018C20.235 2.17534 17.0953 0 12.5 0C7.90467 0 4.76498 2.17534 2.94034 4.00018C0.972734 5.968 0.0913436 7.92319 0.0547228 8.00543C0.0186243 8.08671 -1.82337e-05 8.17467 1.33821e-08 8.2636C1.82605e-05 8.35254 0.018697 8.44048 0.0548288 8.52175C0.0913458 8.60399 0.972838 10.5588 2.94045 12.5262C4.76509 14.3506 7.90467 16.5254 12.5 16.5254C17.0953 16.5254 20.2349 14.3506 22.0596 12.5262C24.0272 10.5588 24.9087 8.60399 24.9452 8.52175C24.9813 8.44048 25 8.35254 25 8.2636C25 8.17467 24.9814 8.08671 24.9453 8.00543ZM12.5 15.2542C9.17607 15.2542 6.27328 14.0449 3.87201 11.6599C2.8652 10.6598 2.01326 9.51508 1.34432 8.26354C2.01325 7.01169 2.86522 5.86665 3.87211 4.86626C6.27328 2.48072 9.17617 1.27119 12.5 1.27119C15.8238 1.27119 18.7267 2.48072 21.1279 4.86626C22.1348 5.86657 22.9867 7.01154 23.6556 8.26333C22.9811 9.55573 19.6016 15.2542 12.5 15.2542ZM12.5 3.39076C11.5362 3.39076 10.5941 3.67655 9.79277 4.21199C8.99143 4.74743 8.36686 5.50847 7.99804 6.39887C7.62923 7.28928 7.53273 8.26905 7.72075 9.2143C7.90877 10.1595 8.37287 11.0278 9.05435 11.7093C9.73584 12.3908 10.6041 12.8549 11.5493 13.0429C12.4946 13.2309 13.4744 13.1344 14.3648 12.7656C15.2552 12.3968 16.0162 11.7722 16.5517 10.9709C17.0871 10.1695 17.3729 9.22741 17.3729 8.26364C17.3714 6.97173 16.8575 5.73314 15.944 4.81962C15.0305 3.90609 13.7919 3.39223 12.5 3.39076ZM12.5 11.8653C11.7877 11.8653 11.0913 11.6541 10.499 11.2583C9.90671 10.8626 9.44507 10.3001 9.17247 9.64195C8.89986 8.98383 8.82854 8.25965 8.96751 7.56099C9.10648 6.86233 9.44951 6.22057 9.95322 5.71686C10.4569 5.21315 11.0987 4.87013 11.7973 4.73115C12.496 4.59218 13.2202 4.66351 13.8783 4.93611C14.5364 5.20871 15.0989 5.67035 15.4947 6.26265C15.8905 6.85494 16.1017 7.5513 16.1017 8.26364C16.1006 9.21855 15.7208 10.134 15.0456 10.8092C14.3704 11.4845 13.4549 11.8643 12.5 11.8653Z" fill="#50C763"/>
</svg>
