<svg width="30" height="25" viewBox="0 0 30 25" fill="none" xmlns="http://www.w3.org/2000/svg">
<path d="M5.625 6.5625C5.625 6.04474 6.04474 5.625 6.5625 5.625H19.6875C20.2052 5.625 20.625 6.04474 20.625 6.5625C20.625 7.08026 20.2052 7.5 19.6875 7.5H6.5625C6.04474 7.5 5.625 7.08026 5.625 6.5625Z" fill="black"/>
<path d="M15.9375 11.25C15.4198 11.25 15 11.6697 15 12.1875C15 12.7053 15.4198 13.125 15.9375 13.125H19.6875C20.2052 13.125 20.625 12.7053 20.625 12.1875C20.625 11.6697 20.2052 11.25 19.6875 11.25H15.9375Z" fill="black"/>
<path d="M15 17.8125C15 17.2948 15.4198 16.875 15.9375 16.875H19.6875C20.2052 16.875 20.625 17.2948 20.625 17.8125C20.625 18.3302 20.2052 18.75 19.6875 18.75H15.9375C15.4198 18.75 15 18.3302 15 17.8125Z" fill="black"/>
<path d="M6.5625 11.25C6.04474 11.25 5.625 11.6697 5.625 12.1875V17.8125C5.625 18.3302 6.04474 18.75 6.5625 18.75H12.1875C12.7053 18.75 13.125 18.3302 13.125 17.8125V12.1875C13.125 11.6697 12.7053 11.25 12.1875 11.25H6.5625ZM7.5 16.875V13.125H11.25V16.875H7.5Z" fill="black"/>
<path d="M0 3.75C0 1.67893 1.67893 0 3.75 0H22.5C24.5711 0 26.25 1.67893 26.25 3.75V5.625C28.3211 5.625 30 7.30393 30 9.375V19.6875C30 22.2763 27.9013 24.375 25.3125 24.375H4.6875C2.09867 24.375 0 22.2763 0 19.6875V3.75ZM24.375 3.75C24.375 2.71447 23.5356 1.875 22.5 1.875H3.75C2.71446 1.875 1.875 2.71447 1.875 3.75V19.6875C1.875 21.2408 3.13419 22.5 4.6875 22.5H25.3125C26.8658 22.5 28.125 21.2408 28.125 19.6875V9.375C28.125 8.33947 27.2856 7.5 26.25 7.5V19.6875C26.25 20.2052 25.8302 20.625 25.3125 20.625C24.7948 20.625 24.375 20.2052 24.375 19.6875V3.75Z" fill="black"/>
</svg>
