<svg width="25" height="25" viewBox="0 0 25 25" fill="none" xmlns="http://www.w3.org/2000/svg">
<path d="M18.0619 6.93811L17.7083 6.58456L17.3548 6.93811L15.886 8.40686L15.5332 8.75973L15.8853 9.11329L17.7233 10.9583H8.33333H7.83333V11.4583V13.5417V14.0417H8.33333H17.72L15.886 15.8756L15.5337 16.2279L15.8848 16.5815L17.3535 18.0606L17.7071 18.4167L18.0619 18.0619L23.2702 12.8536L23.6238 12.5L23.2702 12.1464L18.0619 6.93811ZM12.5 19.2917H4.66666V5.70833H12.5H13V5.20833V3.125V2.625H12.5H4.16666C2.74469 2.625 1.58333 3.78636 1.58333 5.20833V19.7917C1.58333 21.2136 2.74469 22.375 4.16666 22.375H12.5H13V21.875V19.7917V19.2917H12.5Z" stroke="black"/>
</svg>
