<svg width="24" height="24" viewBox="0 0 24 24" fill="none" xmlns="http://www.w3.org/2000/svg">
<path d="M4.1 19.2V18.7H3.6H2.4C1.35254 18.7 0.5 17.8475 0.5 16.8V7.2C0.5 6.15255 1.35254 5.3 2.4 5.3H16.8C17.8475 5.3 18.7 6.15255 18.7 7.2V16.8C18.7 17.8475 17.8475 18.7 16.8 18.7H11.1324H10.9939L10.8752 18.7712L5.16077 22.1996L5.16075 22.1997L4.1 22.8361V19.2ZM2.4 6.7H1.9V7.2V16.8V17.3H2.4H5.5V19.4808V20.3639L6.25726 19.9095L10.6061 17.3H16.8H17.3V16.8V7.2V6.7H16.8H2.4Z" fill="#F5F0DE" fill-opacity="0.66" stroke="black"/>
<path d="M20.4 0.5H21.6C22.6475 0.5 23.5 1.35254 23.5 2.4V3.6V6V12C23.5 12.8745 22.9058 13.6131 22.1 13.8332V12V6.4968V4.8C22.1 3.20026 20.7997 1.9 19.2 1.9H17.5032H5.36678C5.58688 1.09423 6.32551 0.5 7.2 0.5H17.9976H20.4Z" fill="#F5F0DE" fill-opacity="0.66" stroke="black"/>
</svg>
