<svg width="41" height="37" viewBox="0 0 41 37" fill="none" xmlns="http://www.w3.org/2000/svg">
<path d="M0 0H41V37H0V0Z" fill="white"/>
<path d="M36.375 27.75V27.25H35.875H5.125H4.625V27.75V30.8333V31.3333H5.125H35.875H36.375V30.8333V27.75ZM30.0668 5.64748L29.7318 5.34518L29.3968 5.64748L26.9813 7.8274L26.5699 8.19859L26.9813 8.56979L32.0059 13.1042L26.9813 17.6386L26.5699 18.0098L26.9813 18.381L29.3968 20.5609L29.7318 20.8632L30.0668 20.5609L37.9183 13.4754L38.3296 13.1042L37.9183 12.733L30.0668 5.64748ZM21 16.9583V16.4583H20.5H5.125H4.625V16.9583V20.0417V20.5417H5.125H20.5H21V20.0417V16.9583ZM21 6.16668V5.66668H20.5H5.125H4.625V6.16668V9.25001V9.75001H5.125H20.5H21V9.25001V6.16668Z" stroke="#28B6E2" stroke-linecap="round"/>
</svg>
