<svg width="25" height="25" viewBox="0 0 25 25" fill="none" xmlns="http://www.w3.org/2000/svg">
<path d="M4.22999 24.1616C3.17193 24.1616 2.15606 23.7237 1.34642 22.9132C-0.448738 21.1122 -0.448738 18.183 1.34601 16.3831L15.3438 1.51877C17.5278 -0.668731 20.8732 -0.472172 23.3146 1.97233C24.4085 3.06823 25.0224 4.64811 24.9994 6.30872C24.9763 7.95181 24.3344 9.52425 23.2373 10.6233L12.6583 21.8856C12.3638 22.2012 11.8701 22.2156 11.5558 21.9196C11.2422 21.6232 11.227 21.1287 11.5226 20.8143L22.1177 9.53478C22.9464 8.70448 23.4218 7.52666 23.4394 6.28686C23.4569 5.0463 23.0088 3.87667 22.2116 3.07756C20.7141 1.57685 18.2758 0.791006 16.4631 2.60801L2.46564 17.4724C1.26211 18.679 1.2625 20.6169 2.45004 21.8076C3.00694 22.3649 3.66798 22.6363 4.37193 22.5938C5.06846 22.5513 5.7845 22.194 6.38822 21.5888L17.5258 9.73439C17.9294 9.32996 18.7406 8.33858 17.915 7.51101C17.4474 7.04262 17.119 7.07148 17.011 7.08045C16.7025 7.10775 16.3421 7.32108 15.9681 7.69626L7.58512 16.612C7.28911 16.9267 6.79498 16.9419 6.48257 16.6451C6.16862 16.3495 6.15419 15.8542 6.44942 15.5407L14.8477 6.60817C15.508 5.94478 16.183 5.5852 16.8702 5.52358C17.4065 5.47598 18.204 5.59027 19.0175 6.40615C20.225 7.61589 20.0748 9.39041 18.6451 10.8233L7.50753 22.6768C6.61834 23.5691 5.54465 24.0875 4.46748 24.1537C4.38831 24.1592 4.30914 24.1615 4.22997 24.1615L4.22999 24.1616Z" fill="black"/>
</svg>
