<svg width="30" height="23" viewBox="0 0 30 23" fill="none" xmlns="http://www.w3.org/2000/svg">
<path fill-rule="evenodd" clip-rule="evenodd" d="M18.3241 2.31408C18.2735 2.29181 18.2182 2.28262 18.1631 2.28734C18.108 2.29206 18.055 2.31054 18.009 2.3411C17.9629 2.37165 17.9253 2.41329 17.8995 2.46219C17.8738 2.51109 17.8607 2.56568 17.8616 2.62094V5.2613C17.8616 5.56497 17.7409 5.85621 17.5262 6.07094C17.3115 6.28567 17.0202 6.4063 16.7166 6.4063C15.1891 6.4063 12.1068 6.41775 9.15958 8.28867C6.90622 9.71763 4.60249 12.3191 3.21704 17.1647C5.55283 14.9136 8.22068 13.6931 10.5565 13.0473C11.9922 12.6508 13.4677 12.4157 14.9556 12.3465C15.5646 12.3198 16.1746 12.3259 16.783 12.3649H16.8127L16.8242 12.3672H16.8265L16.7166 13.5053L16.8311 12.3649C17.1137 12.3933 17.3757 12.5257 17.5661 12.7365C17.7565 12.9472 17.8618 13.2212 17.8616 13.5053V16.1456C17.8616 16.393 18.1135 16.5487 18.3241 16.4525L27.4475 9.73595C27.4784 9.71295 27.5105 9.69155 27.5436 9.67183C27.5934 9.64191 27.6346 9.59961 27.6632 9.54905C27.6919 9.49849 27.7069 9.44138 27.7069 9.38329C27.7069 9.3252 27.6919 9.26809 27.6632 9.21753C27.6346 9.16697 27.5934 9.12467 27.5436 9.09475C27.5105 9.07503 27.4784 9.05363 27.4475 9.03063L18.3241 2.31408ZM15.5716 14.6182C14.0829 14.644 12.6033 14.8571 11.1679 15.2525C8.13137 16.0953 4.53608 18.0028 2.14532 22.3057C2.01604 22.5379 1.81003 22.7178 1.56262 22.8147C1.31521 22.9117 1.04179 22.9195 0.789225 22.8369C0.536659 22.7544 0.320673 22.5865 0.178281 22.3622C0.0358895 22.1378 -0.0240414 21.871 0.00875929 21.6073C1.07132 13.1114 4.32769 8.64133 7.93214 6.35592C10.7832 4.54682 13.719 4.19875 15.5716 4.13234V2.62094C15.5713 2.14936 15.6984 1.68646 15.9394 1.2811C16.1804 0.875729 16.5263 0.542924 16.9407 0.317796C17.355 0.0926688 17.8225 -0.0164331 18.2937 0.00200316C18.7649 0.0204394 19.2225 0.16573 19.618 0.422544L28.7642 7.15513C29.1423 7.39115 29.4542 7.71953 29.6704 8.10933C29.8866 8.49914 30 8.93755 30 9.38329C30 9.82903 29.8866 10.2674 29.6704 10.6572C29.4542 11.0471 29.1423 11.3754 28.7642 11.6115L19.618 18.344C19.2225 18.6009 18.7649 18.7461 18.2937 18.7646C17.8225 18.783 17.355 18.6739 16.9407 18.4488C16.5263 18.2237 16.1804 17.8909 15.9394 17.4855C15.6984 17.0801 15.5713 16.6172 15.5716 16.1456V14.6182V14.6182Z" fill="#AFDAFC"/>
</svg>
