<svg width="25" height="25" viewBox="0 0 25 25" fill="none" xmlns="http://www.w3.org/2000/svg">
<path d="M13.25 18V19.5H11.75V18H13.25ZM7.9078 1.41345C9.36371 0.810389 10.9241 0.5 12.5 0.5C14.0759 0.5 15.6363 0.810389 17.0922 1.41345C18.5481 2.0165 19.871 2.90042 20.9853 4.01472C22.0996 5.12902 22.9835 6.45189 23.5866 7.9078C24.1896 9.3637 24.5 10.9241 24.5 12.5C24.5 15.6826 23.2357 18.7348 20.9853 20.9853C18.7348 23.2357 15.6826 24.5 12.5 24.5C10.9241 24.5 9.3637 24.1896 7.9078 23.5866C6.45189 22.9835 5.12902 22.0996 4.01472 20.9853C1.76428 18.7348 0.5 15.6826 0.5 12.5C0.5 9.3174 1.76428 6.26516 4.01472 4.01472C5.12902 2.90042 6.45189 2.0165 7.9078 1.41345ZM2 12.5C2 18.2886 6.71136 23 12.5 23C18.2886 23 23 18.2886 23 12.5C23 6.71136 18.2886 2 12.5 2C6.71136 2 2 6.71136 2 12.5ZM9.31802 6.81802C10.1619 5.97411 11.3065 5.5 12.5 5.5C13.6935 5.5 14.8381 5.97411 15.682 6.81802C16.5259 7.66193 17 8.80653 17 10C17 11.3155 16.2393 12.0403 15.2957 12.8659C15.2591 12.898 15.222 12.9303 15.1846 12.9629C14.3985 13.6482 13.4775 14.451 13.286 15.75H11.7721C11.8339 15.0764 12.0203 14.5722 12.2637 14.17C12.5685 13.6662 12.981 13.2908 13.4354 12.9311C13.5331 12.8537 13.636 12.7749 13.7413 12.6943C14.099 12.4203 14.4838 12.1257 14.7836 11.7968C15.2008 11.339 15.5 10.7743 15.5 10C15.5 9.20435 15.1839 8.44129 14.6213 7.87868C14.0587 7.31607 13.2956 7 12.5 7C11.7044 7 10.9413 7.31607 10.3787 7.87868C9.93534 8.32203 9.64508 8.88985 9.54195 9.5H8.02785C8.14069 8.49049 8.59281 7.54323 9.31802 6.81802Z" stroke="black"/>
</svg>
