<svg width="40" height="40" viewBox="0 0 40 40" fill="none" xmlns="http://www.w3.org/2000/svg">
<path d="M31.25 22.5L29.4824 24.2676L32.709 27.5H22.5C21.1739 27.5 19.9021 28.0268 18.9645 28.9645C18.0268 29.9021 17.5 31.1739 17.5 32.5C17.5 33.8261 18.0268 35.0978 18.9645 36.0355C19.9021 36.9732 21.1739 37.5 22.5 37.5H25V35H22.5C21.837 35 21.2011 34.7366 20.7322 34.2678C20.2634 33.7989 20 33.163 20 32.5C20 31.837 20.2634 31.2011 20.7322 30.7322C21.2011 30.2634 21.837 30 22.5 30H32.709L29.4806 33.2342L31.25 35L37.5 28.75L31.25 22.5Z" fill="#28B6E2"/>
<path d="M12.5 27.5H5L4.99575 8.633L19.2884 18.5279C19.4975 18.6725 19.7457 18.75 20 18.75C20.2543 18.75 20.5025 18.6725 20.7116 18.5279L35 8.63575V20H37.5V7.5C37.4992 6.83721 37.2355 6.20181 36.7669 5.73315C36.2982 5.26448 35.6628 5.00083 35 5H5C4.33772 5 3.70249 5.26279 3.23378 5.73069C2.76506 6.19858 2.50116 6.83334 2.5 7.49563V27.5C2.50086 28.1628 2.76453 28.7982 3.23318 29.2668C3.70184 29.7355 4.33722 29.9991 5 30H12.5V27.5ZM32.2482 7.5L20 15.9796L7.75175 7.5H32.2482Z" fill="black"/>
</svg>
