<svg width="25" height="25" viewBox="0 0 25 25" fill="none" xmlns="http://www.w3.org/2000/svg">
<path d="M1.10232 0.0787152L24.5734 11.6441C24.952 11.8307 25.1077 12.2889 24.9211 12.6676C24.8467 12.8186 24.7244 12.9409 24.5734 13.0153L1.1028 24.5805C0.724163 24.7671 0.265962 24.6114 0.0793851 24.2328C-0.0021999 24.0672 -0.021112 23.8777 0.0261419 23.6993L3.03551 12.3361L0.025612 0.959798C-0.0823548 0.551724 0.16093 0.133391 0.569003 0.0254246C0.747381 -0.0217699 0.93681 -0.00284169 1.10232 0.0787152ZM1.93285 2.19208L4.39258 11.4892L4.48732 11.4709L4.58584 11.4646H15.2861C15.7082 11.4646 16.0504 11.8068 16.0504 12.2289C16.0504 12.6041 15.7801 12.9162 15.4235 12.9809L15.2861 12.9932H4.58584C4.53783 12.9932 4.49086 12.9888 4.44531 12.9803L1.93382 22.4669L22.5063 12.3297L1.93285 2.19208Z" fill="#212121"/>
</svg>
