<svg width="30" height="32" viewBox="0 0 30 32" fill="none" xmlns="http://www.w3.org/2000/svg">
<path d="M5.52632 0.789474C5.52632 0.353463 5.87977 0 6.3158 0C6.75182 0 7.10527 0.353463 7.10527 0.789474V5.52632C7.10527 5.96234 6.75182 6.31579 6.3158 6.31579C5.87977 6.31579 5.52632 5.96234 5.52632 5.52632V0.789474Z" fill="#333333"/>
<path d="M18.1579 0.789474C18.1579 0.353463 18.5113 0 18.9474 0C19.3834 0 19.7368 0.353463 19.7368 0.789474V5.52632C19.7368 5.96234 19.3834 6.31579 18.9474 6.31579C18.5113 6.31579 18.1579 5.96234 18.1579 5.52632V0.789474Z" fill="#333333"/>
<path fill-rule="evenodd" clip-rule="evenodd" d="M7.10527 15H5.52632V16.5789H7.10527V15ZM5.52632 13.4211C4.65427 13.4211 3.94737 14.1279 3.94737 15V16.5789C3.94737 17.451 4.65427 18.1579 5.52632 18.1579H7.10527C7.97732 18.1579 8.68421 17.451 8.68421 16.5789V15C8.68421 14.1279 7.97732 13.4211 7.10527 13.4211H5.52632Z" fill="#333333"/>
<path fill-rule="evenodd" clip-rule="evenodd" d="M13.421 15H11.8421V16.5789H13.421V15ZM11.8421 13.4211C10.97 13.4211 10.2632 14.1279 10.2632 15V16.5789C10.2632 17.451 10.97 18.1579 11.8421 18.1579H13.421C14.2931 18.1579 15 17.451 15 16.5789V15C15 14.1279 14.2931 13.4211 13.421 13.4211H11.8421Z" fill="#333333"/>
<path fill-rule="evenodd" clip-rule="evenodd" d="M19.7368 15H18.1579V16.5789H19.7368V15ZM18.1579 13.4211C17.2858 13.4211 16.5789 14.1279 16.5789 15V16.5789C16.5789 17.451 17.2858 18.1579 18.1579 18.1579H19.7368C20.6089 18.1579 21.3158 17.451 21.3158 16.5789V15C21.3158 14.1279 20.6089 13.4211 19.7368 13.4211H18.1579Z" fill="#333333"/>
<path fill-rule="evenodd" clip-rule="evenodd" d="M7.10527 21.3158H5.52632V22.8947H7.10527V21.3158ZM5.52632 19.7368C4.65427 19.7368 3.94737 20.4437 3.94737 21.3158V22.8947C3.94737 23.7668 4.65427 24.4737 5.52632 24.4737H7.10527C7.97732 24.4737 8.68421 23.7668 8.68421 22.8947V21.3158C8.68421 20.4437 7.97732 19.7368 7.10527 19.7368H5.52632Z" fill="#333333"/>
<path fill-rule="evenodd" clip-rule="evenodd" d="M13.421 21.3158H11.8421V22.8947H13.421V21.3158ZM11.8421 19.7368C10.97 19.7368 10.2632 20.4437 10.2632 21.3158V22.8947C10.2632 23.7668 10.97 24.4737 11.8421 24.4737H13.421C14.2931 24.4737 15 23.7668 15 22.8947V21.3158C15 20.4437 14.2931 19.7368 13.421 19.7368H11.8421Z" fill="#333333"/>
<path fill-rule="evenodd" clip-rule="evenodd" d="M3.15789 4.73685H22.1053C22.9773 4.73685 23.6842 5.44374 23.6842 6.31579V18.9474C24.2294 18.9474 24.7585 19.0165 25.2632 19.1463V6.31579C25.2632 4.57173 23.8493 3.1579 22.1053 3.1579H3.15789C1.41384 3.1579 0 4.57173 0 6.31579V25.2632C0 27.0072 1.41384 28.4211 3.15789 28.4211H18.2134C17.9307 27.9324 17.7116 27.4022 17.5674 26.8421H3.15789C2.28587 26.8421 1.57895 26.1352 1.57895 25.2632V6.31579C1.57895 5.44374 2.28587 4.73685 3.15789 4.73685Z" fill="#333333"/>
<path fill-rule="evenodd" clip-rule="evenodd" d="M24.4737 11.8421H0.789474V10.2632H24.4737V11.8421Z" fill="#333333"/>
<path fill-rule="evenodd" clip-rule="evenodd" d="M23.6842 30C26.3003 30 28.421 27.8792 28.421 25.2632C28.421 22.6471 26.3003 20.5263 23.6842 20.5263C21.0681 20.5263 18.9474 22.6471 18.9474 25.2632C18.9474 27.8792 21.0681 30 23.6842 30ZM23.6842 31.579C27.1723 31.579 30 28.7513 30 25.2632C30 21.775 27.1723 18.9474 23.6842 18.9474C20.1961 18.9474 17.3684 21.775 17.3684 25.2632C17.3684 28.7513 20.1961 31.579 23.6842 31.579Z" fill="#333333"/>
<path fill-rule="evenodd" clip-rule="evenodd" d="M23.6842 21.4569C24.1202 21.4569 24.4737 21.8103 24.4737 22.2464V25.6396L26.4091 26.9831C26.7673 27.2317 26.8561 27.7236 26.6074 28.0818C26.3588 28.4399 25.8669 28.5288 25.5087 28.2802L22.8947 26.4657V22.2464C22.8947 21.8103 23.2482 21.4569 23.6842 21.4569V21.4569Z" fill="#333333"/>
</svg>
