<svg width="25" height="23" viewBox="0 0 25 23" fill="none" xmlns="http://www.w3.org/2000/svg">
<path d="M4.45929 15.7027C4.71742 15.9319 4.7409 16.3269 4.51173 16.5851C4.28256 16.8432 3.88753 16.8667 3.6294 16.6375C2.04417 15.2301 0.812739 13.4629 0.0422742 11.476C-0.0140914 11.3306 -0.0140914 11.1694 0.0422742 11.024C2.61409 4.39146 9.92838 0.945905 16.6591 3.15658C16.9871 3.26429 17.1656 3.61746 17.0579 3.9454C16.9502 4.27334 16.597 4.45188 16.2691 4.34417C10.2461 2.36594 3.70598 5.38608 1.29794 11.2499C2.00046 12.9592 3.08267 14.4806 4.45929 15.7027ZM13.2747 6.30974C13.6157 6.36284 13.8492 6.68239 13.7961 7.02345C13.743 7.36452 13.4234 7.59796 13.0824 7.54486C12.8911 7.51508 12.6966 7.5 12.5 7.5C10.4289 7.5 8.75 9.17893 8.75 11.25C8.75 11.4445 8.76476 11.637 8.79391 11.8263C8.84646 12.1674 8.61249 12.4866 8.27134 12.5391C7.93018 12.5917 7.61102 12.3577 7.55848 12.0165C7.51964 11.7643 7.5 11.5083 7.5 11.25C7.5 8.48858 9.73858 6.25 12.5 6.25C12.7611 6.25 13.0198 6.27006 13.2747 6.30974ZM11.8199 16.2041C11.4779 16.1575 11.2383 15.8425 11.2849 15.5004C11.3315 15.1584 11.6465 14.9189 11.9885 14.9655C12.1569 14.9884 12.3276 15 12.5 15C14.5711 15 16.25 13.3211 16.25 11.25C16.25 11.0981 16.241 10.9474 16.2232 10.7984C16.1821 10.4557 16.4266 10.1446 16.7694 10.1035C17.1121 10.0625 17.4232 10.307 17.4643 10.6497C17.488 10.848 17.5 11.0483 17.5 11.25C17.5 14.0114 15.2614 16.25 12.5 16.25C12.2712 16.25 12.0441 16.2346 11.8199 16.2041ZM2.31694 22.3169C2.07286 22.561 1.67714 22.561 1.43306 22.3169C1.18898 22.0729 1.18898 21.6771 1.43306 21.4331L22.6831 0.183058C22.9271 -0.0610194 23.3229 -0.0610194 23.5669 0.183058C23.811 0.427136 23.811 0.822864 23.5669 1.06694L2.31694 22.3169ZM20.5407 6.79726C20.2826 6.5681 20.2591 6.17307 20.4883 5.91494C20.7174 5.65681 21.1125 5.63333 21.3706 5.8625C22.9558 7.26988 24.1873 9.03706 24.9577 11.024C25.0141 11.1694 25.0141 11.3306 24.9577 11.476C22.3859 18.1085 15.0716 21.5541 8.34088 19.3434C8.01294 19.2357 7.83441 18.8825 7.94212 18.5546C8.04983 18.2267 8.40299 18.0481 8.73094 18.1558C14.7539 20.1341 21.294 17.1139 23.7021 11.2501C22.9995 9.54083 21.9173 8.01943 20.5407 6.79726Z" fill="#16BF31"/>
</svg>
